<svg xmlns="http://www.w3.org/2000/svg" version="1.1" xmlns:xlink="http://www.w3.org/1999/xlink" xmlns:svgjs="http://svgjs.dev/svgjs" width="1000" height="219" viewBox="0 0 1000 219"><g transform="matrix(1,0,0,1,-0.60605777105269,-0.007339271540672598)"><svg viewBox="0 0 396 87" data-background-color="#636365" preserveAspectRatio="xMidYMid meet" height="219" width="1000" xmlns="http://www.w3.org/2000/svg" xmlns:xlink="http://www.w3.org/1999/xlink"><defs></defs><g id="tight-bounds" transform="matrix(1,0,0,1,0.23999905275297806,0.0029156010230053653)"><svg viewBox="0 0 395.52 86.99416879795396" height="86.99416879795396" width="395.52"><g><svg viewBox="0 0 395.52 86.99416879795396" height="86.99416879795396" width="395.52"><g><svg viewBox="0 0 395.52 86.99416879795396" height="86.99416879795396" width="395.52"><g><svg viewBox="0 0 395.52 86.99416879795396" height="86.99416879795396" width="395.52"><g><svg viewBox="0 0 395.52 86.99416879795396" height="86.99416879795396" width="395.52"><g transform="matrix(1,0,0,1,0,0)"><svg width="395.52" viewBox="-4.599999904632568 -29.600000381469727 215.02999877929688 47.30000305175781" height="86.99416879795396" data-palette-color="#ffffff"><path d="M29.5-10.95L29.5-10.95 17.1-12.6Q9.5 4.65 2.35 6.85L2.35 6.85Q1.05 7.3 0.05 7.3L0.05 7.3Q-3.7 7.3-4.55 4.15L-4.55 4.15Q-4.6 3.95-4.6 3.73-4.6 3.5-4.53 3.18-4.45 2.85-4.2 2.95-3.95 3.05-3.7 3.9L-3.7 3.9Q-3.25 5.35-1.8 5.75L-1.8 5.75Q-0.7 5.95 0.13 5.95 0.95 5.95 1.55 5.75L1.55 5.75Q8.85 3.45 15.2-12.85L15.2-12.85 12.55-13Q11.85-13.05 11.25-13.05L11.25-13.05Q4.9-13.05 3.45-8.95L3.45-8.95Q3.2-8.4 3.2-7.9 3.2-7.4 3.5-6.9 3.8-6.4 3.33-6.28 2.85-6.15 2.55-6.6L2.55-6.6Q2-7.6 2-8.45L2-8.45Q2-11.5 3.13-12.98 4.25-14.45 5.75-14.9L5.75-14.9Q7.55-15.4 9.75-15.4L9.75-15.4 12.8-15.1Q14.4-14.95 15.85-14.65L15.85-14.65Q17.05-17.85 18.75-23.25L18.75-23.25Q16.1-20.9 12.25-20.5L12.25-20.5Q11.75-20.45 11.73-20.85 11.7-21.25 12.3-21.35L12.3-21.35Q14.45-21.55 16.73-23.55 19-25.55 20.2-28.25L20.2-28.25Q20.3-28.85 21.85-28.85 23.4-28.85 23.35-28.25L23.35-28.25Q23.05-27.5 21.13-22.48 19.2-17.45 17.8-14.25L17.8-14.25Q19.1-14 21.6-13.4L21.6-13.4Q26.7-12.25 29.85-11.9L29.85-11.9Q32.75-18.05 33.48-19.78 34.2-21.5 34.2-21.95 34.2-22.4 34.05-22.65L34.05-22.65Q34.2-24.05 36.23-26.33 38.25-28.6 40.05-28.6L40.05-28.6Q40.85-28.6 41.98-28.03 43.1-27.45 43.1-26.55L43.1-26.55Q43.1-26.35 42.85-26.5 42.6-26.65 42.5-26.65L42.5-26.65Q41.25-26.65 39.6-24.88 37.95-23.1 36.35-20.3L36.35-20.3Q33.9-15.95 32-11.7L32-11.7Q36.3-11.7 37.75-13.5L37.75-13.5Q38-13.95 38.25-13.63 38.5-13.3 38.08-12.68 37.65-12.05 36.2-11.45 34.75-10.85 31.6-10.85L31.6-10.85Q29.25-5.3 29.25-2.15L29.25-2.15Q29.25 0.3 30.68 0.3 32.1 0.3 34.93-1.9 37.75-4.1 40.25-7.45L40.25-7.45Q40.4-7.65 40.7-7.53 41-7.4 40.88-7.08 40.75-6.75 40.1-5.8L40.1-5.8Q38-2.95 34.95-0.5L34.95-0.5Q32.7 1.25 30.05 1.25L30.05 1.25Q28.7 1.25 27.98 0.45 27.25-0.35 27.18-1.05 27.1-1.75 27.1-2.35 27.1-2.95 27.3-4.2L27.3-4.2Q27.8-7.4 29.5-10.95ZM63.05-7Q62.3-5.65 60.35-3.55 58.4-1.45 56.85-0.3L56.85-0.3Q54.85 1.15 52.5 1.15L52.5 1.15Q52.05 1.15 51.32 0.73 50.6 0.3 50.35-0.5 50.1-1.3 50.1-2.05L50.1-2.05Q50.1-4.65 51.1-7.2L51.1-7.2Q50.95-7.1 49.72-5.08 48.5-3.05 46.72-1.25 44.95 0.55 43.15 0.55L43.15 0.55Q42.3 0.55 41.2 0.1L41.2 0.1Q39.2-0.8 39.2-3.2L39.2-3.2Q39.2-6.15 41.22-9.28 43.25-12.4 43.8-12.6L43.8-12.6Q44.55-12.8 45.22-12.8 45.9-12.8 46.6-12.53 47.3-12.25 46.4-11.6L46.4-11.6Q42.95-8.45 41.5-4.6L41.5-4.6Q40.95-3.1 40.95-2.08 40.95-1.05 41.47-0.75 42-0.45 42.5-0.45L42.5-0.45Q43.7-0.45 45.77-2.13 47.85-3.8 51.5-9.1L51.5-9.1Q52-9.85 53.25-12.03 54.5-14.2 54.75-14.6L54.75-14.6Q55.55-14.6 56.62-14.23 57.7-13.85 57.35-13.25L57.35-13.25Q54.95-9.25 53.97-7.35 53-5.45 52.65-2.9L52.65-2.9Q52.6-2.45 52.6-1.75 52.6-1.05 53-0.6L53-0.6Q53.75 0.2 55.07-0.53 56.4-1.25 58.7-3.33 61-5.4 62.4-7.4L62.4-7.4Q62.6-7.65 62.87-7.53 63.15-7.4 63.15-7.28 63.15-7.15 63.05-7L63.05-7ZM64.02-9.13Q66.25-11.1 68.65-12.5 71.05-13.9 72.45-14.25 73.85-14.6 75.2-14.6 76.55-14.6 77.75-13.7L77.75-13.7Q84.6-29.6 90.85-29.6L90.85-29.6Q92.95-29.6 93.7-28.4L93.7-28.4Q94.05-27.8 94.05-27.35L94.05-27.35Q94.05-26.1 92.97-24.18 91.9-22.25 89.65-19.95 87.4-17.65 83.2-14.28 79-10.9 78.55-10.5L78.55-10.5Q76.95-6.8 76.05-3.35 75.15 0.1 75.15 1.8 75.15 3.5 75.75 4.5L75.75 4.5Q76.05 5.15 76.65 5.28 77.25 5.4 77.67 5.13 78.1 4.85 78.32 4.65 78.55 4.45 78.87 4.28 79.2 4.1 79.35 4.2 79.5 4.3 79.3 4.75L79.3 4.75Q78.9 5.25 78.55 5.6L78.55 5.6Q77.75 6.15 76.67 6.15 75.6 6.15 75.25 6.1L75.25 6.1Q72.85 5.7 72.85 2.6L72.85 2.6Q72.85-0.4 73.65-2.95L73.65-2.95Q74.75-6.45 75.65-8.75L75.65-8.75Q67.65 0.55 64.3 0.55L64.3 0.55Q63.5 0.55 62.57 0.08 61.65-0.4 61-1.28 60.35-2.15 60.35-3.15 60.35-4.15 60.8-5.05L60.8-5.05Q61.8-7.15 64.02-9.13ZM76.65-11.2L77.35-12.9Q76.75-13.2 75.25-13.2 73.75-13.2 71.37-11.98 69-10.75 66.9-8.9L66.9-8.9Q65.15-7.25 63.82-5.18 62.5-3.1 62.5-2.15L62.5-2.15Q62.5-0.3 63.55-0.3 64.6-0.3 66.75-2L66.75-2Q72.3-6.55 76.65-11.2L76.65-11.2ZM92-25.5L92-25.5Q92.65-26.7 92.65-27.53 92.65-28.35 91.92-28.35 91.2-28.35 90-27.45L90-27.45Q84.5-23.25 80.05-13.4L80.05-13.4Q83.3-15.5 86.85-19 90.4-22.5 92-25.5ZM81.04 0.5L81.04 0.5Q80.39 1.25 80.77 1.7 81.14 2.15 81.62 2.15 82.09 2.15 82.59 2L82.59 2Q84.74 1.35 86.77-0.58 88.79-2.5 88.79-4.5L88.79-4.5Q88.79-5.6 86.34-6.9L86.34-6.9Q85.19-7.5 85.04-7.6L85.04-7.6Q83.69-8.5 83.34-9.4L83.34-9.4Q82.64-8.2 81.09-5.95L81.09-5.95Q80.74-5.55 80.44-5.78 80.14-6 80.39-6.4L80.39-6.4Q82.44-9.2 83.09-11.1L83.09-11.1Q83.44-13.85 87.09-16.05 90.74-18.25 93.74-18.25L93.74-18.25Q95.64-18.25 96.42-17.57 97.19-16.9 97.19-16.25 97.19-15.6 96.82-14.75 96.44-13.9 95.29-13.15L95.29-13.15Q94.99-12.95 94.79-13.25L94.79-13.25Q94.69-13.55 95.22-14.08 95.74-14.6 95.89-15.5 96.04-16.4 95.09-16.6L95.09-16.6Q94.94-16.6 94.79-16.6L94.79-16.6Q92.84-16.6 89.92-15.15 86.99-13.7 85.34-11.4L85.34-11.4Q84.69-10.55 84.69-9.68 84.69-8.8 85.89-8.1L85.89-8.1Q86.39-7.8 87.59-7.15 88.79-6.5 89.29-6.2 89.79-5.9 90.49-5.25 91.19-4.6 91.24-4.05L91.24-4.05Q91.49-2.55 89.84-0.75L89.84-0.75Q87.49 1.85 82.84 2.9L82.84 2.9Q81.79 3.15 80.72 3.15 79.64 3.15 79.24 2.35L79.24 2.35Q79.09 2.15 79.09 1.73 79.09 1.3 79.89 0.35L79.89 0.35Q80.64-0.4 82.29-1.1L82.29-1.1Q82.44-1.15 82.54-1.05 82.64-0.95 82.59-0.8 82.54-0.65 82.07-0.45 81.59-0.25 81.04 0.5ZM112.49-29.25L112.49-29.25Q113.39-29.6 114.04-29.6L114.04-29.6Q116.24-29.6 116.94-28.4L116.94-28.4Q117.34-27.8 117.34-27.35L117.34-27.35Q117.34-23.95 111.64-18.8L111.64-18.8Q106.59-14.35 102.34-11.15L102.34-11.15Q100.94-8 99.44-3.4L99.44-3.4Q101.24-5.6 103.99-8.5L103.99-8.5Q109.54-14.25 111.74-14.25L111.74-14.25Q112.84-14.25 112.89-13.15L112.89-13.15Q112.99-12 112.42-10.95 111.84-9.9 111.34-9L111.34-9Q108.99-5.1 108.99-2.05L108.99-2.05Q108.99-1.05 109.39-0.6L109.39-0.6Q110.09 0.2 111.39-0.5 112.69-1.2 115.02-3.3 117.34-5.4 118.79-7.4L118.79-7.4Q119.04-7.65 119.27-7.53 119.49-7.4 119.49-7.28 119.49-7.15 119.39-7L119.39-7Q118.64-5.65 116.69-3.58 114.74-1.5 113.54-0.6L113.54-0.6Q111.24 1.15 109.14 1.15L109.14 1.15Q107.24 1.15 106.59-0.75L106.59-0.75Q106.44-1.2 106.44-1.83 106.44-2.45 106.54-3.15L106.54-3.15Q106.79-5.25 109.19-9.7L109.19-9.7Q109.69-10.6 109.69-10.98 109.69-11.35 109.29-11.35L109.29-11.35Q108.49-11.35 106.19-9.35L106.19-9.35Q104.64-7.9 101.62-3.88 98.59 0.15 98.19 0.4L98.19 0.4Q96.39 1.3 95.97 1.3 95.54 1.3 95.49 1.18 95.44 1.05 95.54 0.85 95.64 0.65 96.34-1.35L96.34-1.35Q98.69-8 99.54-10.15L99.54-10.15Q97.89-8.05 95.44-5.4L95.44-5.4Q95.04-5 95.04-5.58 95.04-6.15 95.49-6.75 95.94-7.35 97.37-9.08 98.79-10.8 99.39-11.65L99.39-11.65Q98.94-11.9 98.92-12.35 98.89-12.8 99.22-12.98 99.54-13.15 100.29-12.85L100.29-12.85Q100.79-13.55 101.19-14.4L101.19-14.4Q107.14-27.2 112.49-29.25ZM115.29-25.5L115.29-25.5Q115.94-26.7 115.94-27.53 115.94-28.35 115.22-28.35 114.49-28.35 113.29-27.45L113.29-27.45Q107.79-23.25 103.34-13.4L103.34-13.4Q106.59-15.5 110.14-19 113.69-22.5 115.29-25.5ZM128.49-5.5L128.49-5.5Q129.39-7.35 129.39-8.35 129.39-9.35 129.16-9.93 128.94-10.5 129.36-10.9 129.79-11.3 130.44-11.2L130.44-11.2Q131.44-10.95 131.44-8.95 131.44-6.95 129.09-3.7L129.09-3.7Q129.14-2.35 130.49-2.35 131.84-2.35 134.59-5.25L134.59-5.25Q135.89-6.75 136.21-7.2 136.54-7.65 136.79-7.53 137.04-7.4 137.04-7.3L137.04-7.3Q137.04-6.8 135.24-4.7L135.24-4.7Q132.39-1.2 130.19-1.2L130.19-1.2Q128.74-1.2 128.14-2.45L128.14-2.45Q127.14-1.4 126.19-0.5L126.19-0.5Q124.24 1.15 121.84 1.15L121.84 1.15Q120.49 1.15 119.59 0.5L119.59 0.5Q117.84-0.55 117.84-3.25L117.84-3.25Q117.84-6.2 119.84-9.25L119.84-9.25Q120.99-11.05 122.54-12.4L122.54-12.4Q124.99-14.55 127.19-14.55L127.19-14.55Q127.74-14.55 128.24-14.4L128.24-14.4Q129.74-13.9 129.74-12.5L129.74-12.5Q129.74-11.35 129.14-11.35L129.14-11.35Q128.89-11.45 128.89-12.1L128.89-12.1Q128.89-13 127.89-13L127.89-13Q126.14-13 123.39-9.8 120.64-6.6 120.09-3.35L120.09-3.35Q119.99-2.8 119.99-2.13 119.99-1.45 120.44-0.58 120.89 0.3 122.11 0.3 123.34 0.3 124.79-0.8 126.24-1.9 127.39-3.6L127.39-3.6 127.24-3.9Q127.04-4.7 127.44-5.2 127.84-5.7 128.49-5.5ZM151.34-10.4L151.34-10.4Q151.34-8.2 149.54-5.93 147.74-3.65 145.29-1.95L145.29-1.95Q143.04-0.5 140.71 0.3 138.39 1.1 137.21 1.1 136.04 1.1 135.29 0.85L135.29 0.85Q134.19 3.4 132.24 9.4L132.24 9.4Q132.04 10.05 132.01 11.03 131.99 12 131.41 13.68 130.84 15.35 130.29 16.35L130.29 16.35Q130.04 16.95 128.84 17.32 127.64 17.7 127.14 17.7 126.64 17.7 126.64 17.2L126.64 17.2Q126.64 17 126.79 16.65L126.79 16.65Q129.09 11.95 132.59 2.83 136.09-6.3 136.44-7.3 136.79-8.3 137.44-10.2L137.44-10.2Q138.54-13.4 138.64-15L138.64-15Q138.64-15.6 140.24-15.6 141.84-15.6 141.84-14.45L141.84-14.45Q141.84-13.6 140.86-12.08 139.89-10.55 137.99-6L137.99-6Q140.89-10.4 142.69-11.75L142.69-11.75Q145.09-13.7 147.34-13.7L147.34-13.7Q148.24-13.7 149.14-13.4L149.14-13.4Q151.09-12.7 151.29-11.15L151.29-11.15Q151.34-10.75 151.34-10.4ZM148.89-11.1L148.89-11.1Q148.89-12.85 147.54-12.85L147.54-12.85Q146.74-12.85 144.94-11.9 143.14-10.95 141.34-9.05 139.54-7.15 138.56-5.48 137.59-3.8 136.74-2.02 135.89-0.25 135.74 0.05L135.74 0.05Q138.79 0.05 142.44-2.6 146.09-5.25 147.89-8.35L147.89-8.35Q148.89-9.9 148.89-11.1ZM169.83-10.4L169.83-10.4Q169.83-8.2 168.03-5.93 166.23-3.65 163.78-1.95L163.78-1.95Q161.53-0.5 159.21 0.3 156.88 1.1 155.71 1.1 154.53 1.1 153.78 0.85L153.78 0.85Q152.68 3.4 150.73 9.4L150.73 9.4Q150.53 10.05 150.51 11.03 150.48 12 149.91 13.68 149.33 15.35 148.78 16.35L148.78 16.35Q148.53 16.95 147.33 17.32 146.13 17.7 145.63 17.7 145.13 17.7 145.13 17.2L145.13 17.2Q145.13 17 145.28 16.65L145.28 16.65Q147.58 11.95 151.08 2.83 154.58-6.3 154.93-7.3 155.28-8.3 155.93-10.2L155.93-10.2Q157.03-13.4 157.13-15L157.13-15Q157.13-15.6 158.73-15.6 160.33-15.6 160.33-14.45L160.33-14.45Q160.33-13.6 159.36-12.08 158.38-10.55 156.48-6L156.48-6Q159.38-10.4 161.18-11.75L161.18-11.75Q163.58-13.7 165.83-13.7L165.83-13.7Q166.73-13.7 167.63-13.4L167.63-13.4Q169.58-12.7 169.78-11.15L169.78-11.15Q169.83-10.75 169.83-10.4ZM167.38-11.1L167.38-11.1Q167.38-12.85 166.03-12.85L166.03-12.85Q165.23-12.85 163.43-11.9 161.63-10.95 159.83-9.05 158.03-7.15 157.06-5.48 156.08-3.8 155.23-2.02 154.38-0.25 154.23 0.05L154.23 0.05Q157.28 0.05 160.93-2.6 164.58-5.25 166.38-8.35L166.38-8.35Q167.38-9.9 167.38-11.1ZM184.23-14.55L184.23-14.55Q186.93-14.55 186.93-11.95L186.93-11.95Q186.93-10.6 186.18-9.75L186.18-9.75Q184.93-7.9 182.13-6.53 179.33-5.15 177.38-5L177.38-5Q176.68-4.95 176.63-5.4L176.63-5.4Q176.58-5.6 176.76-5.65 176.93-5.7 177.03-5.7L177.03-5.7Q178.18-5.8 179.98-6.8L179.98-6.8Q183.33-8.6 184.88-10.5L184.88-10.5Q185.53-11.4 185.53-12.23 185.53-13.05 184.73-13.05L184.73-13.05Q184.08-13.05 182.98-12.5L182.98-12.5Q180.63-11.4 178.03-8.68 175.43-5.95 174.63-3.35L174.63-3.35Q174.38-2.55 174.38-1.78 174.38-1 175.03-0.3 175.68 0.4 177.03 0.4L177.03 0.4Q178.53 0.4 180.48-0.4L180.48-0.4Q186.13-2.7 189.18-7.35L189.18-7.35Q189.48-7.75 189.73-7.5L189.73-7.5Q189.93-7.4 189.93-7.25 189.93-7.1 189.78-6.9L189.78-6.9Q188.28-4.4 185.98-2.45L185.98-2.45Q181.53 1.35 177.33 1.35L177.33 1.35Q173.73 1.35 172.28-0.8L172.28-0.8Q171.73-1.65 171.73-2.85 171.73-4.05 172.38-5.7L172.38-5.7Q173.63-8.55 177.73-11.55 181.83-14.55 184.23-14.55ZM202.53-14.2L202.53-14.2Q203.68-14.2 203.68-12.98 203.68-11.75 202.53-9.6 201.38-7.45 200.83-6.1L200.83-6.1Q199.88-3.8 199.88-2.43 199.88-1.05 200.28-0.6L200.28-0.6Q201.03 0.2 202.33-0.53 203.63-1.25 205.95-3.33 208.28-5.4 209.68-7.4L209.68-7.4Q209.88-7.65 210.15-7.53 210.43-7.4 210.43-7.28 210.43-7.15 210.33-7L210.33-7Q209.58-5.65 207.63-3.55 205.68-1.45 203.88-0.18 202.08 1.1 200.33 1.1L200.33 1.1Q198.63 1.05 197.93 0.33 197.23-0.4 197.23-1.5 197.23-2.6 197.43-3.63 197.63-4.65 198.18-6L198.18-6Q199.08-8.15 199.75-9.35 200.43-10.55 200.43-10.93 200.43-11.3 200.03-11.3L200.03-11.3Q199.23-11.3 196.98-9.35L196.98-9.35Q195.43-7.9 192.4-3.88 189.38 0.15 188.98 0.4L188.98 0.4Q187.18 1.3 186.73 1.3 186.28 1.3 186.28 1.15 186.28 1 186.38 0.73 186.48 0.45 187.35-2 188.23-4.45 189.25-7.38 190.28-10.3 190.5-10.9 190.73-11.5 190.8-11.93 190.88-12.35 190.98-12.65 191.08-12.95 191.35-13.33 191.63-13.7 192.08-13.73 192.53-13.75 193.23-13.63 193.93-13.5 193.93-13L193.93-13Q193.93-12.65 193.38-11.48 192.83-10.3 190.23-3.4L190.23-3.4Q192.03-5.6 194.78-8.47 197.53-11.35 199.43-12.85L199.43-12.85Q201.33-14.2 202.53-14.2Z" opacity="1" transform="matrix(1,0,0,1,0,0)" fill="#ffffff" class="undefined-text-0" data-fill-palette-color="primary" id="text-0"></path></svg></g></svg></g></svg></g></svg></g><g></g></svg></g></svg><rect width="395.52" height="86.99416879795396" fill="none" stroke="none" visibility="hidden"></rect></g></svg></g></svg>